<svg xmlns="http://www.w3.org/2000/svg" viewBox="0 0 64 64" role="img" aria-label="dreeft">
<title>dreeft</title>
<g fill="#ece9e2" opacity="0.22"><circle cx="4" cy="8" r="2.4"/><circle cx="4" cy="16" r="2.4"/><circle cx="4" cy="32" r="2.4"/><circle cx="12" cy="8" r="2.4"/><circle cx="12" cy="24" r="2.4"/><circle cx="12" cy="32" r="2.4"/><circle cx="20" cy="16" r="2.4"/><circle cx="20" cy="24" r="2.4"/><circle cx="20" cy="32" r="2.4"/><circle cx="28" cy="16" r="2.4"/><circle cx="28" cy="24" r="2.4"/><circle cx="28" cy="32" r="2.4"/><circle cx="36" cy="8" r="2.4"/><circle cx="36" cy="24" r="2.4"/><circle cx="36" cy="32" r="2.4"/><circle cx="44" cy="8" r="2.4"/><circle cx="44" cy="16" r="2.4"/><circle cx="44" cy="32" r="2.4"/><circle cx="52" cy="8" r="2.4"/><circle cx="52" cy="16" r="2.4"/><circle cx="52" cy="24" r="2.4"/><circle cx="60" cy="8" r="2.4"/><circle cx="60" cy="16" r="2.4"/><circle cx="60" cy="24" r="2.4"/></g>
<g fill="#f2a93b"><circle cx="4" cy="24" r="3.3"/><circle cx="12" cy="16" r="3.3"/><circle cx="20" cy="8" r="3.3"/><circle cx="28" cy="8" r="3.3"/><circle cx="36" cy="16" r="3.3"/><circle cx="44" cy="24" r="3.3"/><circle cx="52" cy="32" r="3.3"/><circle cx="60" cy="32" r="3.3"/></g>
<g fill="none" stroke="#ece9e2" stroke-width="5.5" stroke-linecap="round" stroke-linejoin="round"><path d="M8 44 L17 51 L8 58"/><path d="M28 58 L52 58"/></g>
</svg>
