<svg xmlns="http://www.w3.org/2000/svg" width="709.5" height="100" viewBox="0 0 709.5 100" font-family="ui-monospace, SFMono-Regular, 'SF Mono', Menlo, Consolas, 'DejaVu Sans Mono', monospace">
<rect x="0.5" y="0.5" width="708.5" height="99" rx="10" fill="#0d1117" stroke="#30363d"/>
<g font-size="22.5" text-anchor="middle" fill="#7d8590"><text x="30.75" y="46.2">∴</text></g>
<g font-size="22.5" text-anchor="middle" fill="#e6edf3"><text x="57.75" y="46.2">r</text><text x="71.25" y="46.2">e</text><text x="84.75" y="46.2">g</text><text x="98.25" y="46.2">i</text><text x="111.75" y="46.2">s</text><text x="125.25" y="46.2">t</text><text x="138.75" y="46.2">e</text><text x="152.25" y="46.2">r</text><text x="165.75" y="46.2">.</text><text x="179.25" y="46.2">t</text><text x="192.75" y="46.2">s</text><text x="206.25" y="46.2">x</text></g>
<g font-size="22.5" text-anchor="middle" fill="#7d8590"><text x="233.25" y="46.2">×</text><text x="246.75" y="46.2">6</text></g>
<g font-size="22.5" text-anchor="middle" fill="#7d8590"><text x="273.75" y="46.2">·</text></g>
<g font-size="22.5" text-anchor="middle" fill="#e6edf3"><text x="300.75" y="46.2">m</text><text x="314.25" y="46.2">e</text><text x="327.75" y="46.2">t</text><text x="341.25" y="46.2">a</text><text x="354.75" y="46.2">R</text><text x="368.25" y="46.2">o</text><text x="381.75" y="46.2">w</text></g>
<g font-size="22.5" text-anchor="middle" fill="#7d8590"><text x="408.75" y="46.2">×</text><text x="422.25" y="46.2">4</text></g>
<g font-size="22.5" text-anchor="middle" fill="#7d8590"><text x="449.25" y="46.2">·</text></g>
<g font-size="22.5" text-anchor="middle" fill="#e6edf3"><text x="476.25" y="46.2">o</text><text x="489.75" y="46.2">b</text><text x="503.25" y="46.2">s</text><text x="516.75" y="46.2">e</text><text x="530.25" y="46.2">r</text><text x="543.75" y="46.2">v</text><text x="557.25" y="46.2">e</text></g>
<g font-size="22.5" text-anchor="middle" fill="#7d8590"><text x="584.25" y="46.2">×</text><text x="597.75" y="46.2">2</text></g>
<g font-size="22.5" text-anchor="middle" fill="#7d8590"><text x="651.75" y="46.2">⟲</text></g>
<g font-size="22.5" text-anchor="middle" fill="#e3b341"><text x="678.75" y="46.2">2</text></g>
<path d="M52 59V62H603.5V59M327.75 62V69" fill="none" stroke="#484f58"/>
<text x="327.75" y="82" font-size="13" text-anchor="middle" fill="#7d8590">the names the turn keeps coming back to</text>
<path d="M646 59V62H684.5V59M665.25 62V69" fill="none" stroke="#484f58"/>
<text x="630.9" y="82" font-size="13" text-anchor="middle" fill="#7d8590">second-guesses</text>
</svg>
